<svg width="720" height="720" xmlns="http://www.w3.org/2000/svg" xmlns:xlink="http://www.w3.org/1999/xlink" xml:space="preserve" overflow="hidden"><g transform="translate(-280 0)"><g><path d="M999.884 490.528 999.884 532.077C980.228 527.957 964.692 520.775 951.157 514.422 930.442 504.063 913.846 496.767 890.073 496.767 889.013 496.767 889.013 496.767 889.013 496.767 865.121 497.824 848.525 505.124 827.928 514.422 807.331 523.718 780.143 536.314 744.951 536.314 709.761 536.314 682.807 523.955 661.974 514.422 641.259 504.063 624.664 496.767 600.89 496.767 576.998 497.824 560.402 505.124 539.805 514.422 526.27 520.659 509.792 527.957 491.078 532.077L491.078 490.528C500.376 487.468 509.674 483.232 518.973 479.229 539.687 469.931 565.581 457.337 600.773 457.337 635.964 457.337 661.858 469.696 682.573 479.229 704.466 488.527 719.883 495.824 744.718 495.824 769.669 495.824 786.266 488.528 806.863 479.229 828.754 469.931 854.648 457.337 889.84 457.337L890.898 457.337C926.089 457.337 951.983 469.696 972.698 479.229 982.345 484.408 990.584 487.468 999.884 490.528ZM509.554 461.574C500.256 465.694 492.959 469.931 484.602 471.931L471.067 477.227 471.067 491.822 379.969 467.811 374.673 488.528 369.494 507.123C367.493 514.422 361.137 518.422 353.958 516.422L289.812 498.767C282.515 497.708 278.513 490.41 280.514 483.232L285.693 463.575 324.18 320.572C328.3 305.036 333.478 293.62 346.072 279.025L470.243 134.021C480.601 121.663 500.256 113.307 518.029 112.13 523.325 112.13 529.328 112.13 532.623 113.189L759.545 174.274C781.436 180.512 802.033 203.228 806.153 225.119L841.345 412.73C843.345 425.088 843.345 434.622 842.404 443.92 824.749 449.216 809.213 456.278 796.855 461.574 793.793 463.574 791.558 464.635 788.497 465.694 785.437 450.157 773.904 435.681 757.307 431.444 734.475 425.205 712.817 438.74 706.463 460.397 705.404 463.458 705.404 465.694 705.404 468.754 701.284 466.754 696.105 464.635 689.867 461.458 669.153 452.16 639.022 437.564 599.711 437.564 560.399 437.681 530.269 452.276 509.554 461.574ZM409.04 337.168C405.98 336.109 403.744 336.109 400.684 336.109 397.624 336.109 395.387 336.109 393.387 336.109 376.791 337.168 362.197 349.644 359.137 366.121 352.898 388.013 366.434 410.61 388.09 416.966 409.982 423.205 432.58 409.67 438.936 388.012 444.232 366.239 430.814 343.287 409.04 337.168ZM782.259 391.073 758.366 261.488C753.07 236.536 744.831 228.297 722.115 222.059L545.922 174.274C539.684 172.273 534.623 171.214 530.386 171.214 528.385 171.214 527.326 171.214 525.089 171.214 513.79 171.214 505.434 177.452 493.899 189.81L408.922 290.442 782.259 391.073ZM891.013 528.896 889.954 528.896C854.763 528.896 828.87 541.255 806.977 550.788 785.085 560.324 769.667 567.386 744.832 567.386 719.88 567.386 704.344 560.088 682.688 550.788 661.972 540.432 636.079 528.896 600.888 528.896 565.696 528.896 539.803 541.255 519.088 550.788 509.79 554.908 500.492 559.147 491.193 562.09L491.193 603.636C509.79 599.516 526.385 592.337 539.92 585.981 560.635 576.683 577.231 568.326 601.006 568.326 624.781 568.326 641.494 576.683 662.091 585.981 682.806 595.279 709.876 607.873 745.068 607.873 780.258 607.873 807.212 596.574 828.045 585.981 848.759 576.683 865.355 568.326 889.129 568.326 889.129 568.326 889.129 568.326 890.188 568.326 914.081 568.326 930.676 576.683 951.273 585.981 964.808 592.22 980.227 599.516 999.999 603.636L999.999 562.09C990.702 559.027 982.344 555.85 973.047 550.788 952.097 541.255 926.203 528.896 891.013 528.896Z" fill="#002060" fill-rule="nonzero" fill-opacity="1"/></g></g></svg>