<svg width="720" height="722" xmlns="http://www.w3.org/2000/svg" xmlns:xlink="http://www.w3.org/1999/xlink" xml:space="preserve" overflow="hidden"><defs><clipPath id="clip0"><rect x="280" y="30" width="720" height="722"/></clipPath><clipPath id="clip1"><rect x="280" y="30" width="720" height="722"/></clipPath><clipPath id="clip2"><rect x="280" y="31" width="720" height="720"/></clipPath><clipPath id="clip3"><rect x="280" y="31" width="720" height="720"/></clipPath><clipPath id="clip4"><rect x="280" y="31" width="720" height="720"/></clipPath></defs><g clip-path="url(#clip0)" transform="translate(-280 -30)"><g clip-path="url(#clip1)"><g clip-path="url(#clip2)"><g clip-path="url(#clip3)"><g clip-path="url(#clip4)"><path d="M640.003 751C441.177 751.006 280 589.829 279.994 391.003 279.988 192.177 441.165 30.9999 639.991 30.9937 838.816 30.9876 999.994 192.165 1000 390.99 1000 390.99 1000 390.997 1000 390.997 999.777 589.724 838.73 750.771 640.003 751ZM640.003 55.7441C454.843 55.7379 304.744 205.837 304.738 390.997 304.732 576.157 454.831 726.256 639.991 726.262 825.151 726.268 975.25 576.169 975.256 391.009 975.256 391.003 975.256 391.003 975.256 390.997 975.045 205.93 825.07 55.9546 640.003 55.7441Z" fill="#F8D648" fill-rule="nonzero" fill-opacity="1"/><path d="M640.003 702.323C476.926 702.285 341.514 576.404 329.594 413.767L328.752 402.143 340.307 400.608C345.617 399.897 349.337 395.014 348.625 389.703 348.043 385.371 344.639 381.967 340.307 381.385L328.758 379.85 329.6 368.227C342.275 196.801 491.52 68.1099 662.94 80.7853 816.666 92.1548 938.913 214.328 950.369 368.048L951.378 381.893 936.951 381.274C931.585 381.274 927.234 385.625 927.234 390.99 927.234 396.356 931.585 400.707 936.951 400.707L951.366 400.021 950.351 413.94C938.338 576.504 802.963 702.279 639.96 702.316ZM355.111 421.441C371.878 578.781 513.021 692.735 670.355 675.969 803.929 661.74 909.682 556.612 924.703 423.125 906.959 416.236 898.164 396.27 905.053 378.526 908.556 369.508 915.685 362.378 924.703 358.875 907.008 201.64 765.197 88.5155 607.956 106.21 474.469 121.238 369.346 226.985 355.111 360.559 371.921 369.428 378.364 390.248 369.495 407.058 366.258 413.191 361.245 418.204 355.111 421.441Z" fill="#F8D648" fill-rule="nonzero" fill-opacity="1"/><path d="M934.104 437.979 898.895 437.979 898.895 533.254 902.899 533.254C917.988 505.403 928.522 475.311 934.104 444.131Z" fill="#F8D648" fill-rule="nonzero" fill-opacity="1"/><path d="M834.688 437.979 869.898 437.979 869.898 533.254 834.688 533.254Z" fill="#F8D648" fill-rule="nonzero" fill-opacity="1"/><path d="M714.737 500.117 810.012 500.117 810.012 535.327 714.737 535.327Z" fill="#F8D648" fill-rule="nonzero" fill-opacity="1"/><path d="M714.737 435.905 810.012 435.905 810.012 471.115 714.737 471.115Z" fill="#F8D648" fill-rule="nonzero" fill-opacity="1"/><path d="M654.851 437.979 690.061 437.979 690.061 533.254 654.851 533.254Z" fill="#F8D648" fill-rule="nonzero" fill-opacity="1"/><path d="M590.639 437.979 625.849 437.979 625.849 533.254 590.639 533.254Z" fill="#F8D648" fill-rule="nonzero" fill-opacity="1"/><path d="M470.687 500.117 565.963 500.117 565.963 535.327 470.687 535.327Z" fill="#F8D648" fill-rule="nonzero" fill-opacity="1"/><path d="M470.687 435.905 565.963 435.905 565.963 471.115 470.687 471.115Z" fill="#F8D648" fill-rule="nonzero" fill-opacity="1"/><path d="M410.807 437.979 446.017 437.979 446.017 533.254 410.807 533.254Z" fill="#F8D648" fill-rule="nonzero" fill-opacity="1"/><path d="M377.101 533.254 381.805 533.254 381.805 437.979 346.595 437.979 346.595 447.677C352.32 477.595 362.606 506.461 377.101 533.254Z" fill="#F8D648" fill-rule="nonzero" fill-opacity="1"/><path d="M836.755 598.351 855.23 598.351C865.789 587.365 875.499 575.594 884.276 563.141L836.755 563.141Z" fill="#F8D648" fill-rule="nonzero" fill-opacity="1"/><path d="M812.079 565.209 776.87 565.209 776.87 656.808C789.087 650.501 800.846 643.365 812.079 635.437Z" fill="#F8D648" fill-rule="nonzero" fill-opacity="1"/><path d="M712.663 565.208 747.873 565.208 747.873 660.484 712.663 660.484Z" fill="#F8D648" fill-rule="nonzero" fill-opacity="1"/><path d="M592.712 627.347 687.987 627.347 687.987 662.557 592.712 662.557Z" fill="#F8D648" fill-rule="nonzero" fill-opacity="1"/><path d="M592.712 563.141 687.987 563.141 687.987 598.351 592.712 598.351Z" fill="#F8D648" fill-rule="nonzero" fill-opacity="1"/><path d="M532.826 565.208 568.036 565.208 568.036 660.484 532.826 660.484Z" fill="#F8D648" fill-rule="nonzero" fill-opacity="1"/><path d="M468.62 565.209 468.62 635.925C479.853 643.811 491.619 650.909 503.83 657.173L503.83 565.209Z" fill="#F8D648" fill-rule="nonzero" fill-opacity="1"/><path d="M443.944 563.141 395.73 563.141C404.507 575.594 414.211 587.365 424.77 598.351L443.956 598.351Z" fill="#F8D648" fill-rule="nonzero" fill-opacity="1"/><path d="M898.895 241.715 898.895 278.788 916.998 278.788C911.83 266.026 905.777 253.642 898.895 241.715Z" fill="#F8D648" fill-rule="nonzero" fill-opacity="1"/><path d="M869.904 200.056C865.17 194.362 860.237 188.847 855.112 183.512L834.688 183.512 834.688 278.769 869.904 278.769Z" fill="#F8D648" fill-rule="nonzero" fill-opacity="1"/><path d="M714.737 245.651 810.012 245.651 810.012 280.861 714.737 280.861Z" fill="#F8D648" fill-rule="nonzero" fill-opacity="1"/><path d="M714.737 181.439 810.012 181.439 810.012 216.649 714.737 216.649Z" fill="#F8D648" fill-rule="nonzero" fill-opacity="1"/><path d="M654.851 183.513 690.061 183.513 690.061 278.788 654.851 278.788Z" fill="#F8D648" fill-rule="nonzero" fill-opacity="1"/><path d="M590.639 183.513 625.849 183.513 625.849 278.788 590.639 278.788Z" fill="#F8D648" fill-rule="nonzero" fill-opacity="1"/><path d="M470.687 245.651 565.963 245.651 565.963 280.861 470.687 280.861Z" fill="#F8D648" fill-rule="nonzero" fill-opacity="1"/><path d="M470.687 181.439 565.963 181.439 565.963 216.649 470.687 216.649Z" fill="#F8D648" fill-rule="nonzero" fill-opacity="1"/><path d="M446.017 183.512 424.906 183.512C420.023 188.581 415.325 193.824 410.82 199.239L410.82 278.769 446.03 278.769Z" fill="#F8D648" fill-rule="nonzero" fill-opacity="1"/><path d="M363.015 278.769 381.817 278.769 381.817 240.483C374.644 252.781 368.356 265.574 363.015 278.769Z" fill="#F8D648" fill-rule="nonzero" fill-opacity="1"/><path d="M812.079 146.545C800.846 138.616 789.081 131.474 776.87 125.167L776.87 151.558 812.079 151.558Z" fill="#F8D648" fill-rule="nonzero" fill-opacity="1"/><path d="M712.663 151.558 747.874 151.558 747.874 112.183C736.38 107.714 724.621 103.97 712.663 100.968Z" fill="#F8D648" fill-rule="nonzero" fill-opacity="1"/><path d="M592.712 118.415 687.987 118.415 687.987 153.625 592.712 153.625Z" fill="#F8D648" fill-rule="nonzero" fill-opacity="1"/><path d="M568.036 100.782C556.079 103.759 544.319 107.479 532.826 111.923L532.826 151.533 568.036 151.533Z" fill="#F8D648" fill-rule="nonzero" fill-opacity="1"/><path d="M468.62 151.558 503.83 151.558 503.83 124.821C491.619 131.084 479.853 138.189 468.62 146.074Z" fill="#F8D648" fill-rule="nonzero" fill-opacity="1"/><path d="M924.561 372.881 836.755 372.881 836.755 408.091 923.193 408.091C913.755 400.374 912.362 386.46 920.08 377.028 921.373 375.444 922.883 374.051 924.561 372.881Z" fill="#F8D648" fill-rule="nonzero" fill-opacity="1"/><path d="M836.755 308.675 836.755 343.885 932.031 343.885 932.031 327.304C930.669 321.01 929.06 314.809 927.309 308.675Z" fill="#F8D648" fill-rule="nonzero" fill-opacity="1"/><path d="M776.87 310.742 812.079 310.742 812.079 406.018 776.87 406.018Z" fill="#F8D648" fill-rule="nonzero" fill-opacity="1"/><path d="M712.663 310.742 747.873 310.742 747.873 406.018 712.663 406.018Z" fill="#F8D648" fill-rule="nonzero" fill-opacity="1"/><path d="M592.712 372.881 687.987 372.881 687.987 408.091 592.712 408.091Z" fill="#F8D648" fill-rule="nonzero" fill-opacity="1"/><path d="M592.712 308.675 687.987 308.675 687.987 343.885 592.712 343.885Z" fill="#F8D648" fill-rule="nonzero" fill-opacity="1"/><path d="M532.826 310.742 568.036 310.742 568.036 406.018 532.826 406.018Z" fill="#F8D648" fill-rule="nonzero" fill-opacity="1"/><path d="M468.62 310.742 503.83 310.742 503.83 406.018 468.62 406.018Z" fill="#F8D648" fill-rule="nonzero" fill-opacity="1"/><path d="M352.945 408.091 443.925 408.091 443.925 372.881 351.46 372.881C361.486 379.683 364.092 393.324 357.29 403.35 356.077 405.133 354.604 406.736 352.927 408.091Z" fill="#F8D648" fill-rule="nonzero" fill-opacity="1"/><path d="M443.944 308.675 352.698 308.675C351.225 313.818 349.869 319.011 348.668 324.266L348.668 343.885 443.944 343.885Z" fill="#F8D648" fill-rule="nonzero" fill-opacity="1"/></g></g></g></g></g></svg>