<svg width="720" height="720" xmlns="http://www.w3.org/2000/svg" xmlns:xlink="http://www.w3.org/1999/xlink" xml:space="preserve" overflow="hidden"><defs><clipPath id="clip0"><rect x="280" y="0" width="720" height="720"/></clipPath><clipPath id="clip1"><rect x="280" y="0" width="720" height="720"/></clipPath></defs><g clip-path="url(#clip0)" transform="translate(-280 0)"><g clip-path="url(#clip1)"><path d="M640.003 720C441.177 720.006 280 558.829 279.994 360.003 279.988 161.177 441.165-9.29297e-05 639.991-0.00632588 838.816-0.01237 999.994 161.165 1000 359.99 1000 359.99 1000 359.997 1000 359.997 999.777 558.724 838.73 719.771 640.003 720ZM640.003 24.7441C454.843 24.7379 304.744 174.837 304.738 359.997 304.732 545.157 454.831 695.256 639.991 695.262 825.151 695.268 975.25 545.169 975.256 360.009 975.256 360.003 975.256 360.003 975.256 359.997 975.045 174.93 825.07 24.9546 640.003 24.7441Z" fill="#FF0000" fill-rule="nonzero" fill-opacity="1"/><path d="M640.003 671.323C476.926 671.285 341.514 545.404 329.594 382.767L328.752 371.143 340.307 369.608C345.617 368.897 349.337 364.014 348.625 358.703 348.043 354.371 344.639 350.967 340.307 350.385L328.758 348.85 329.6 337.227C342.275 165.801 491.52 37.1099 662.94 49.7853 816.666 61.1548 938.913 183.328 950.369 337.048L951.378 350.893 936.951 350.274C931.585 350.274 927.234 354.625 927.234 359.99 927.234 365.356 931.585 369.707 936.951 369.707L951.366 369.021 950.351 382.94C938.338 545.504 802.963 671.279 639.96 671.316ZM355.111 390.441C371.878 547.781 513.021 661.735 670.355 644.969 803.929 630.74 909.682 525.612 924.703 392.125 906.959 385.236 898.164 365.27 905.053 347.526 908.556 338.508 915.685 331.378 924.703 327.875 907.008 170.64 765.197 57.5155 607.956 75.2103 474.469 90.2375 369.346 195.985 355.111 329.559 371.921 338.428 378.364 359.248 369.495 376.058 366.258 382.191 361.245 387.204 355.111 390.441Z" fill="#FF0000" fill-rule="nonzero" fill-opacity="1"/><path d="M934.104 406.979 898.895 406.979 898.895 502.254 902.899 502.254C917.988 474.403 928.522 444.311 934.104 413.131Z" fill="#FF0000" fill-rule="nonzero" fill-opacity="1"/><path d="M834.688 406.979 869.898 406.979 869.898 502.254 834.688 502.254Z" fill="#FF0000" fill-rule="nonzero" fill-opacity="1"/><path d="M714.737 469.117 810.012 469.117 810.012 504.327 714.737 504.327Z" fill="#FF0000" fill-rule="nonzero" fill-opacity="1"/><path d="M714.737 404.905 810.012 404.905 810.012 440.115 714.737 440.115Z" fill="#FF0000" fill-rule="nonzero" fill-opacity="1"/><path d="M654.851 406.979 690.061 406.979 690.061 502.254 654.851 502.254Z" fill="#FF0000" fill-rule="nonzero" fill-opacity="1"/><path d="M590.639 406.979 625.849 406.979 625.849 502.254 590.639 502.254Z" fill="#FF0000" fill-rule="nonzero" fill-opacity="1"/><path d="M470.687 469.117 565.963 469.117 565.963 504.327 470.687 504.327Z" fill="#FF0000" fill-rule="nonzero" fill-opacity="1"/><path d="M470.687 404.905 565.963 404.905 565.963 440.115 470.687 440.115Z" fill="#FF0000" fill-rule="nonzero" fill-opacity="1"/><path d="M410.807 406.979 446.017 406.979 446.017 502.254 410.807 502.254Z" fill="#FF0000" fill-rule="nonzero" fill-opacity="1"/><path d="M377.101 502.254 381.805 502.254 381.805 406.979 346.595 406.979 346.595 416.677C352.32 446.595 362.606 475.461 377.101 502.254Z" fill="#FF0000" fill-rule="nonzero" fill-opacity="1"/><path d="M836.755 567.351 855.23 567.351C865.789 556.365 875.499 544.594 884.276 532.141L836.755 532.141Z" fill="#FF0000" fill-rule="nonzero" fill-opacity="1"/><path d="M812.079 534.209 776.87 534.209 776.87 625.808C789.087 619.501 800.846 612.365 812.079 604.437Z" fill="#FF0000" fill-rule="nonzero" fill-opacity="1"/><path d="M712.663 534.208 747.873 534.208 747.873 629.484 712.663 629.484Z" fill="#FF0000" fill-rule="nonzero" fill-opacity="1"/><path d="M592.712 596.347 687.987 596.347 687.987 631.557 592.712 631.557Z" fill="#FF0000" fill-rule="nonzero" fill-opacity="1"/><path d="M592.712 532.141 687.987 532.141 687.987 567.351 592.712 567.351Z" fill="#FF0000" fill-rule="nonzero" fill-opacity="1"/><path d="M532.826 534.208 568.036 534.208 568.036 629.484 532.826 629.484Z" fill="#FF0000" fill-rule="nonzero" fill-opacity="1"/><path d="M468.62 534.209 468.62 604.925C479.853 612.811 491.619 619.909 503.83 626.173L503.83 534.209Z" fill="#FF0000" fill-rule="nonzero" fill-opacity="1"/><path d="M443.944 532.141 395.73 532.141C404.507 544.594 414.211 556.365 424.77 567.351L443.956 567.351Z" fill="#FF0000" fill-rule="nonzero" fill-opacity="1"/><path d="M898.895 210.715 898.895 247.788 916.998 247.788C911.83 235.026 905.777 222.642 898.895 210.715Z" fill="#FF0000" fill-rule="nonzero" fill-opacity="1"/><path d="M869.904 169.056C865.17 163.362 860.237 157.847 855.112 152.512L834.688 152.512 834.688 247.769 869.904 247.769Z" fill="#FF0000" fill-rule="nonzero" fill-opacity="1"/><path d="M714.737 214.651 810.012 214.651 810.012 249.861 714.737 249.861Z" fill="#FF0000" fill-rule="nonzero" fill-opacity="1"/><path d="M714.737 150.439 810.012 150.439 810.012 185.649 714.737 185.649Z" fill="#FF0000" fill-rule="nonzero" fill-opacity="1"/><path d="M654.851 152.513 690.061 152.513 690.061 247.788 654.851 247.788Z" fill="#FF0000" fill-rule="nonzero" fill-opacity="1"/><path d="M590.639 152.513 625.849 152.513 625.849 247.788 590.639 247.788Z" fill="#FF0000" fill-rule="nonzero" fill-opacity="1"/><path d="M470.687 214.651 565.963 214.651 565.963 249.861 470.687 249.861Z" fill="#FF0000" fill-rule="nonzero" fill-opacity="1"/><path d="M470.687 150.439 565.963 150.439 565.963 185.649 470.687 185.649Z" fill="#FF0000" fill-rule="nonzero" fill-opacity="1"/><path d="M446.017 152.512 424.906 152.512C420.023 157.581 415.325 162.824 410.82 168.239L410.82 247.769 446.03 247.769Z" fill="#FF0000" fill-rule="nonzero" fill-opacity="1"/><path d="M363.015 247.769 381.817 247.769 381.817 209.483C374.644 221.781 368.356 234.574 363.015 247.769Z" fill="#FF0000" fill-rule="nonzero" fill-opacity="1"/><path d="M812.079 115.545C800.846 107.616 789.081 100.474 776.87 94.1675L776.87 120.558 812.079 120.558Z" fill="#FF0000" fill-rule="nonzero" fill-opacity="1"/><path d="M712.663 120.558 747.874 120.558 747.874 81.1827C736.38 76.7143 724.621 72.9698 712.663 69.968Z" fill="#FF0000" fill-rule="nonzero" fill-opacity="1"/><path d="M592.712 87.4153 687.987 87.4153 687.987 122.625 592.712 122.625Z" fill="#FF0000" fill-rule="nonzero" fill-opacity="1"/><path d="M568.036 69.7823C556.079 72.7594 544.319 76.4789 532.826 80.9229L532.826 120.533 568.036 120.533Z" fill="#FF0000" fill-rule="nonzero" fill-opacity="1"/><path d="M468.62 120.558 503.83 120.558 503.83 93.8209C491.619 100.084 479.853 107.189 468.62 115.075Z" fill="#FF0000" fill-rule="nonzero" fill-opacity="1"/><path d="M924.561 341.881 836.755 341.881 836.755 377.091 923.193 377.091C913.755 369.374 912.362 355.46 920.08 346.028 921.373 344.444 922.883 343.051 924.561 341.881Z" fill="#FF0000" fill-rule="nonzero" fill-opacity="1"/><path d="M836.755 277.675 836.755 312.885 932.031 312.885 932.031 296.304C930.669 290.01 929.06 283.809 927.309 277.675Z" fill="#FF0000" fill-rule="nonzero" fill-opacity="1"/><path d="M776.87 279.742 812.079 279.742 812.079 375.018 776.87 375.018Z" fill="#FF0000" fill-rule="nonzero" fill-opacity="1"/><path d="M712.663 279.742 747.873 279.742 747.873 375.018 712.663 375.018Z" fill="#FF0000" fill-rule="nonzero" fill-opacity="1"/><path d="M592.712 341.881 687.987 341.881 687.987 377.091 592.712 377.091Z" fill="#FF0000" fill-rule="nonzero" fill-opacity="1"/><path d="M592.712 277.675 687.987 277.675 687.987 312.885 592.712 312.885Z" fill="#FF0000" fill-rule="nonzero" fill-opacity="1"/><path d="M532.826 279.742 568.036 279.742 568.036 375.018 532.826 375.018Z" fill="#FF0000" fill-rule="nonzero" fill-opacity="1"/><path d="M468.62 279.742 503.83 279.742 503.83 375.018 468.62 375.018Z" fill="#FF0000" fill-rule="nonzero" fill-opacity="1"/><path d="M352.945 377.091 443.925 377.091 443.925 341.881 351.46 341.881C361.486 348.683 364.092 362.324 357.29 372.35 356.077 374.133 354.604 375.736 352.927 377.091Z" fill="#FF0000" fill-rule="nonzero" fill-opacity="1"/><path d="M443.944 277.675 352.698 277.675C351.225 282.818 349.869 288.011 348.668 293.266L348.668 312.885 443.944 312.885Z" fill="#FF0000" fill-rule="nonzero" fill-opacity="1"/></g></g></svg>