<svg width="720" height="720" xmlns="http://www.w3.org/2000/svg" xmlns:xlink="http://www.w3.org/1999/xlink" xml:space="preserve" overflow="hidden"><defs><clipPath id="clip0"><rect x="280" y="0" width="720" height="720"/></clipPath><clipPath id="clip1"><rect x="280" y="0" width="720" height="720"/></clipPath></defs><g clip-path="url(#clip0)" transform="translate(-280 0)"><g clip-path="url(#clip1)"><path d="M969.566 334.895C952.805 334.895 938.984 347.098 938.984 364.007 937.514 474.132 873.997 573.67 776.811 627.042 630.37 707.467 459.227 635.276 393.652 537.354L486.134 556.615C501.425 559.703 518.186 550.44 521.274 533.678 524.361 518.387 515.099 501.626 498.337 498.538L316.462 460.311C305.876 457.811 278.087 465.457 281.322 493.98L304.258 677.473C305.729 692.764 318.079 703.497 333.37 703.497 356.16 703.497 365.423 686.736 363.952 669.828L353.219 580.287C501.866 758.633 690.505 733.785 804.305 682.178 922.076 619.397 997.061 498.685 998.531 365.477 998.678 348.715 986.328 334.895 969.566 334.895Z" stroke="#000066" stroke-width="2.33477" stroke-linecap="butt" stroke-linejoin="miter" stroke-miterlimit="4" stroke-opacity="1" fill="#000066" fill-rule="nonzero" fill-opacity="1"/><path d="M310.287 385.032C327.048 385.032 340.869 372.828 340.869 355.92 342.339 245.795 405.856 146.256 503.042 92.8843 649.483 12.4593 820.626 84.6507 886.201 182.572L793.719 163.311C778.428 160.224 761.667 169.487 758.579 186.248 755.492 201.539 764.754 218.3 781.516 221.388L963.538 259.616C974.124 262.115 1001.91 254.47 998.678 225.946L975.742 42.4533C974.271 27.1622 961.921 16.4291 946.63 16.4291 923.84 16.4291 914.577 33.1904 916.048 50.0988L926.634 139.64C777.987-38.5599 589.348-13.859 475.548 37.8954 357.777 100.53 282.792 221.388 281.175 354.45 281.175 371.358 293.525 385.032 310.287 385.032Z" stroke="#000066" stroke-width="2.33477" stroke-linecap="butt" stroke-linejoin="miter" stroke-miterlimit="4" stroke-opacity="1" fill="#000066" fill-rule="nonzero" fill-opacity="1"/></g></g></svg>