<svg width="256" height="256" xmlns="http://www.w3.org/2000/svg" xmlns:xlink="http://www.w3.org/1999/xlink" xml:space="preserve" overflow="hidden"><g transform="translate(-512 -232)"><g><path d="M757.6 404.1 755.5 397.8C754.3 394.3 750.5 391.5 747.1 391.5L739.8 391.5C735.2 378.5 730.5 367.1 728.9 363.5 726 357 716.9 355.6 711.8 354.2 711.8 354.2 703.4 351.6 675.3 351.6 647.2 351.6 638.8 354.2 638.8 354.2 632.9 356.2 624.7 357.5 621.4 363.8 620.1 366.3 615.3 378.2 610.7 391.5L603.5 391.5C600 391.5 596.3 394.3 595.1 397.8L593 404.1C591.8 407.6 593.6 411.6 597.1 411.6L604.3 411.6C602.4 417.2 601.1 419.8 601.1 419.8 600.6 420.7 600.2 425 600.2 426.1L600.2 473C600.2 476.5 603 479.3 606.5 479.3L623.9 479.3C627.4 479.3 630.2 476.5 630.2 473L630.2 464.2 720.7 464.2 720.7 473C720.7 476.5 723.5 479.3 727 479.3L744.5 479.3C748 479.3 750.8 476.5 750.8 473L750.8 426.1C750.8 425 750.4 420.7 749.9 419.8 749.9 419.8 748.6 417.2 746.6 411.6L753.8 411.6C757 411.5 758.8 407.5 757.6 404.1ZM638.4 441.7 630 441.7C622.6 441.7 615.1 440.6 615.1 435.4L615.1 429.1C615.1 423.1 618.3 422.8 621.8 422.8 625.2 422.8 631.9 425.9 636.3 428.1 641.1 430.5 646.5 432.4 646.5 436.3 646.5 440 644.6 441.7 638.4 441.7ZM621 398.2C625.4 380.7 630.2 374.2 631.2 371.4 632 369.4 632.9 363.2 675.3 363.2 717.8 363.2 718.8 370.3 718.9 370.3 720.2 374 725.4 382 729.6 398.1 729.6 398.1 711.7 403.9 675.4 403.9 639.1 403.9 621 398.2 621 398.2ZM735.5 435.4C735.5 440.6 728.1 441.7 720.6 441.7L712.3 441.7C706 441.7 704.2 440 704.2 436.4 704.2 432.5 709.6 430.5 714.4 428.2 718.8 426 725.5 422.9 728.9 422.9 732.4 422.9 735.6 423.1 735.6 429.2L735.6 435.4 735.5 435.4Z" fill="#002060" fill-rule="nonzero" fill-opacity="1"/><path d="M666.8 323 666.8 323C662.9 312.1 659 302.3 656.9 297.3 659 302.3 663 312.1 666.8 323Z" fill="#002060" fill-rule="nonzero" fill-opacity="1"/><path d="M603.5 381.4 603.6 381.4C607.3 371.2 611 362.1 612.5 359.2 617.1 350.2 626.5 347.4 632.6 345.6 633.6 345.3 634.6 345 635.6 344.7 637.5 344.1 647.2 341.6 675.3 341.6 675.5 341.6 675.7 341.6 675.9 341.6 675.8 341.4 675.8 341.2 675.7 341L682.9 341C686.4 341 688.2 337 687 333.5L684.9 327.2C683.7 323.7 679.9 320.9 676.5 320.9L669.2 320.9C664.6 307.9 659.9 296.5 658.3 292.9 655.4 286.4 646.3 285 641.2 283.6 641.2 283.6 632.8 281 604.7 281 576.6 281 568.2 283.6 568.2 283.6 562.3 285.6 554.1 286.9 550.8 293.2 549.5 295.7 544.7 307.6 540.1 320.9L532.9 320.9C529.4 320.9 525.7 323.7 524.5 327.2L522.4 333.5C521.2 336.9 523.1 341 526.5 341L533.7 341C531.8 346.6 530.5 349.2 530.5 349.2 530 350.1 529.6 354.4 529.6 355.5L529.6 402.4C529.6 405.9 532.4 408.7 535.9 408.7L553.3 408.7C556.8 408.7 559.6 405.9 559.6 402.4L559.6 393.6 586 393.6C588.9 386.6 596 381.4 603.5 381.4ZM560.6 300.9C561.4 298.9 562.3 292.7 604.7 292.7 647.2 292.7 648.2 299.8 648.3 299.8 649.6 303.5 654.8 311.5 659 327.6 659 327.6 641.1 333.4 604.8 333.4 568.5 333.4 550.4 327.5 550.4 327.5 554.8 310.2 559.6 303.6 560.6 300.9ZM567.8 371.1 559.5 371.1C552.1 371.1 544.6 370 544.6 364.8L544.6 358.5C544.6 352.5 547.8 352.2 551.3 352.2 554.7 352.2 561.4 355.3 565.8 357.5 570.6 359.9 576 361.8 576 365.7 575.9 369.4 574.1 371.1 567.8 371.1Z" fill="#002060" fill-rule="nonzero" fill-opacity="1"/><path d="M631.2 260.6C632 258.6 632.9 252.4 675.3 252.4 717.8 252.4 718.8 259.5 718.9 259.5 720.2 263.2 725.4 271.2 729.6 287.3 729.6 287.3 711.7 293.1 675.4 293.1 673.3 293.1 671.4 293 669.4 293 671.1 297.1 673.6 303.4 676.4 310.8L676.6 310.8C684.4 310.8 692 316.3 694.5 323.9L696.6 330.2C698 334.2 697.7 338.4 696.1 342.1 708.5 342.9 713.6 344.2 714.8 344.5L716.7 345C723.1 346.6 733.7 349.3 738.2 359.4 738.9 360.9 740.2 364.1 741.9 368.3L744.4 368.3C747.9 368.3 750.7 365.5 750.7 362L750.7 315.2C750.7 314.1 750.3 309.8 749.8 308.9 749.8 308.9 748.5 306.3 746.5 300.7L753.7 300.7C757.2 300.7 759 296.7 757.8 293.2L755.6 286.9C754.4 283.4 750.6 280.6 747.2 280.6L739.9 280.6C735.3 267.6 730.6 256.2 729 252.6 726.1 246.1 717 244.7 711.9 243.3 711.9 243.3 703.5 240.7 675.4 240.7 647.3 240.7 638.9 243.3 638.9 243.3 633 245.3 624.8 246.6 621.5 252.9 620.5 254.8 617.6 262 614.2 271.1 618.8 271.2 622.6 271.4 626 271.6 628.5 265.4 630.6 262.2 631.2 260.6ZM735.5 318.2 735.5 324.5C735.5 329.7 728.1 330.8 720.6 330.8L712.3 330.8C706 330.8 704.2 329.1 704.2 325.5 704.2 321.6 709.6 319.6 714.4 317.3 718.8 315.1 725.5 312 728.9 312 732.3 311.9 735.5 312.2 735.5 318.2Z" fill="#002060" fill-rule="nonzero" fill-opacity="1"/></g></g></svg>